<svg width="156" height="192" viewBox="0 0 156 192" fill="none" xmlns="http://www.w3.org/2000/svg">
<path d="M58.376 64V19.2H78.28C82.6747 19.2 86.2587 20.4587 89.032 22.976C91.848 25.4933 93.256 28.7573 93.256 32.768C93.256 35.6693 92.4453 38.208 90.824 40.384C89.2453 42.56 87.112 44.1173 84.424 45.056L93.832 64H85.32L76.68 46.08H66.056V64H58.376ZM77.64 25.664H66.056V39.936H77.64C79.9867 39.936 81.8853 39.296 83.336 38.016C84.7867 36.6933 85.512 34.9653 85.512 32.832C85.512 30.6987 84.7867 28.9707 83.336 27.648C81.8853 26.3253 79.9867 25.664 77.64 25.664Z" fill="#DFE2F2"/>
<path d="M58.376 119V74.2H78.28C82.6747 74.2 86.2587 75.4587 89.032 77.976C91.848 80.4933 93.256 83.7573 93.256 87.768C93.256 90.6693 92.4453 93.208 90.824 95.384C89.2453 97.56 87.112 99.1173 84.424 100.056L93.832 119H85.32L76.68 101.08H66.056V119H58.376ZM77.64 80.664H66.056V94.936H77.64C79.9867 94.936 81.8853 94.296 83.336 93.016C84.7867 91.6933 85.512 89.9653 85.512 87.832C85.512 85.6987 84.7867 83.9707 83.336 82.648C81.8853 81.3253 79.9867 80.664 77.64 80.664Z" fill="#DFE2F2"/>
<path d="M58.376 174V129.2H78.28C82.6747 129.2 86.2587 130.459 89.032 132.976C91.848 135.493 93.256 138.757 93.256 142.768C93.256 145.669 92.4453 148.208 90.824 150.384C89.2453 152.56 87.112 154.117 84.424 155.056L93.832 174H85.32L76.68 156.08H66.056V174H58.376ZM77.64 135.664H66.056V149.936H77.64C79.9867 149.936 81.8853 149.296 83.336 148.016C84.7867 146.693 85.512 144.965 85.512 142.832C85.512 140.699 84.7867 138.971 83.336 137.648C81.8853 136.325 79.9867 135.664 77.64 135.664Z" fill="#DFE2F2"/>
<path d="M111.376 74.2H118.864L142.224 106.712L142.096 74.2H149.328V119H142.48L118.48 85.592L118.608 119H111.376V74.2Z" fill="#DFE2F2"/>
<path d="M1.6 80.856V74.2H39.232V80.856H24.32V119H16.64V80.856H1.6Z" fill="#DFE2F2"/>
</svg>
