<svg width="167" height="167" viewBox="0 0 167 167" fill="none" xmlns="http://www.w3.org/2000/svg">
<g clip-path="url(#clip0)">
<circle cx="83.5" cy="83.5" r="83.5" fill="#718187"/>
<path d="M63.376 51V6.2H83.28C87.6747 6.2 91.2587 7.45866 94.032 9.976C96.848 12.4933 98.256 15.7573 98.256 19.768C98.256 22.6693 97.4453 25.208 95.824 27.384C94.2453 29.56 92.112 31.1173 89.424 32.056L98.832 51H90.32L81.68 33.08H71.056V51H63.376ZM82.64 12.664H71.056V26.936H82.64C84.9867 26.936 86.8853 26.296 88.336 25.016C89.7867 23.6933 90.512 21.9653 90.512 19.832C90.512 17.6987 89.7867 15.9707 88.336 14.648C86.8853 13.3253 84.9867 12.664 82.64 12.664Z" fill="#303136"/>
<path d="M63.376 106V61.2H83.28C87.6747 61.2 91.2587 62.4587 94.032 64.976C96.848 67.4933 98.256 70.7573 98.256 74.768C98.256 77.6693 97.4453 80.208 95.824 82.384C94.2453 84.56 92.112 86.1173 89.424 87.056L98.832 106H90.32L81.68 88.08H71.056V106H63.376ZM82.64 67.664H71.056V81.936H82.64C84.9867 81.936 86.8853 81.296 88.336 80.016C89.7867 78.6933 90.512 76.9653 90.512 74.832C90.512 72.6987 89.7867 70.9707 88.336 69.648C86.8853 68.3253 84.9867 67.664 82.64 67.664Z" fill="#303136"/>
<path d="M63.376 161V116.2H83.28C87.6747 116.2 91.2587 117.459 94.032 119.976C96.848 122.493 98.256 125.757 98.256 129.768C98.256 132.669 97.4453 135.208 95.824 137.384C94.2453 139.56 92.112 141.117 89.424 142.056L98.832 161H90.32L81.68 143.08H71.056V161H63.376ZM82.64 122.664H71.056V136.936H82.64C84.9867 136.936 86.8853 136.296 88.336 135.016C89.7867 133.693 90.512 131.965 90.512 129.832C90.512 127.699 89.7867 125.971 88.336 124.648C86.8853 123.325 84.9867 122.664 82.64 122.664Z" fill="#303136"/>
<path d="M116.376 61.2H123.864L147.224 93.712L147.096 61.2H154.328V106H147.48L123.48 72.592L123.608 106H116.376V61.2Z" fill="#303136"/>
<path d="M6.6 67.856V61.2H44.232V67.856H29.32V106H21.64V67.856H6.6Z" fill="#303136"/>
</g>
<defs>
<clipPath id="clip0">
<rect width="167" height="167" fill="white"/>
</clipPath>
</defs>
</svg>
